<?xml version="1.0" encoding="UTF-8" standalone="no"?> <svg xmlns="http://www.w3.org/2000/svg" viewBox="0 0 512 512"><defs><style>.cls-1{fill:#25364e;}.cls-2{fill:#314157;}.cls-3{fill:#f9d18b;}.cls-4{fill:#3c4c60;}.cls-5{fill:#526173;}.cls-6{fill:#fbdea9;}.cls-7{fill:#d19e6d;}.cls-8{fill:#e7eefd;}</style></defs><g id="Layer_24" data-name="Layer 24"><path class="cls-1" d="M384,258.709V144a128,128,0,0,0-256,0V258.8a63.652,63.652,0,0,0,17.273,98.135L216,334.829V311.188h0A95.937,95.937,0,0,1,160,224V176a71.769,71.769,0,0,0,46.744-37.5L216,120a98.008,98.008,0,0,0,70.179,46.6L352,176v48a95.935,95.935,0,0,1-56,87.188h0v23.641l70.628,22.07A63.653,63.653,0,0,0,384,258.709Z"/><path class="cls-2" d="M371.324,269.121V166.505a114.506,114.506,0,0,0-229.011,0V269.2A56.761,56.761,0,0,0,153.6,354.327l62.4-19.5V311.188h0A95.937,95.937,0,0,1,160,224V176a71.769,71.769,0,0,0,46.744-37.5L216,120a98.008,98.008,0,0,0,70.179,46.6L352,176v48a95.935,95.935,0,0,1-56,87.188h0v23.641l63.414,19.816a56.756,56.756,0,0,0,11.91-85.524Z"/><path class="cls-3" d="M428.013,405.216a48,48,0,0,0-33.271-39.532L296,334.829V311.188a95.191,95.191,0,0,1-80,0v23.641l-98.742,30.855a48,48,0,0,0-33.271,39.532L72,496H440Z"/><path class="cls-4" d="M83.987,405.216,72,496H440l-11.987-90.784a48,48,0,0,0-33.271-39.532L296,334.829,256,376l-40-41.171-98.742,30.855A48,48,0,0,0,83.987,405.216Z"/><polygon class="cls-5" points="296 334.829 256 376 216 334.829 144 357.328 144 496 368 496 368 357.328 296 334.829"/><path class="cls-3" d="M352,176v48a96,96,0,0,1-96,96h0a96,96,0,0,1-96-96V176h0a71.769,71.769,0,0,0,46.744-37.5L216,120h0a98,98,0,0,0,70.179,46.6Z"/><path class="cls-6" d="M235.867,143.542a72.053,72.053,0,0,1-23.282,23.677C200.146,175.031,192,188.108,192,202.8V224a95.947,95.947,0,0,0,80,94.561A95.947,95.947,0,0,0,352,224V176l-65.821-9.4A97.91,97.91,0,0,1,235.867,143.542Z"/><path class="cls-7" d="M256,296a33.711,33.711,0,0,1-30.313-18.734l-.843-1.688a8,8,0,0,1,14.312-7.156l.844,1.687a17.887,17.887,0,0,0,32,0l.844-1.687a8,8,0,0,1,14.312,7.156l-.844,1.688A33.709,33.709,0,0,1,256,296Z"/><path class="cls-7" d="M224,224a8,8,0,0,1-8-8,8,8,0,0,0-16,0,8,8,0,0,1-16,0,24,24,0,0,1,48,0A8,8,0,0,1,224,224Z"/><path class="cls-7" d="M320,224a8,8,0,0,1-8-8,8,8,0,0,0-16,0,8,8,0,0,1-16,0,24,24,0,0,1,48,0A8,8,0,0,1,320,224Z"/><polygon class="cls-4" points="322.975 343.258 296 334.829 256 376 287.304 394.783 322.975 343.258"/><polygon class="cls-8" points="256 376 224.896 395.072 256 440 287.304 394.783 256 376"/><polygon class="cls-4" points="216 334.829 189.025 343.258 224.896 395.072 256 376 216 334.829"/><path class="cls-4" d="M360,432H152a8,8,0,0,0,0,16h40v40a8,8,0,0,0,16,0V448h40v40a8,8,0,0,0,16,0V448h40v40a8,8,0,0,0,16,0V448h40a8,8,0,0,0,0-16Z"/><path class="cls-4" d="M400,416a8,8,0,0,0-8,8v64a8,8,0,0,0,16,0V424A8,8,0,0,0,400,416Z"/><path class="cls-4" d="M112,416a8,8,0,0,0-8,8v64a8,8,0,0,0,16,0V424A8,8,0,0,0,112,416Z"/></g></svg>