<?xml version="1.0" encoding="UTF-8" standalone="no"?> <svg id="Layer_1" data-name="Layer 1" xmlns="http://www.w3.org/2000/svg" viewBox="0 0 128 128"><defs><style>.cls-1{fill:#2d3e50;}.cls-2{fill:#1d75b8;}</style></defs><title>b</title><path class="cls-1" d="M40.49962,87.38035l.50783-2.47167H1.65376l.50793,2.47167a10.77726,10.77726,0,0,0,10.5056,8.5741h17.329A10.77629,10.77629,0,0,0,40.49962,87.38035Z"/><path class="cls-1" d="M86.99255,84.90867l.50793,2.47167a10.77726,10.77726,0,0,0,10.5056,8.5741h17.329a10.77629,10.77629,0,0,0,10.50328-8.5741l.50783-2.47167Z"/><path class="cls-2" d="M38.97252,78.57619c-.51244-1.02759-4.30442-8.62777-8.06667-16.13551-2.36492-4.71957-4.25523-8.4802-5.61959-11.17647-.81083-1.6049-1.44328-2.84655-1.87788-3.692-.233-.45244-.41839-.80813-.54758-1.05029a1.5901,1.5901,0,0,0-3.06061-.00054c-.12919.24271-.3146.59839-.54758,1.05138-.4346.84488-1.06651,2.08653-1.87788,3.69036-1.36436,2.69736-3.25467,6.458-5.61959,11.177C7.99559,69.94356,4.20577,77.53887,3.68954,78.574l-.05946.11892A1.49844,1.49844,0,0,0,4.302,80.70218h.00054a1.49746,1.49746,0,0,0,2.00869-.67191C11.72648,69.17273,18.5634,55.51836,21.33049,50.088c2.76547,5.42769,9.60292,19.0826,15.01981,29.94177a1.49772,1.49772,0,1,0,2.6806-1.33679Z"/><path class="cls-2" d="M124.36962,78.69295l-.05838-.11676c-.51244-1.02759-4.30442-8.62777-8.06667-16.13551-2.36492-4.71957-4.25523-8.4802-5.61959-11.17647-.81083-1.6049-1.44274-2.84709-1.87788-3.692-.233-.45244-.41839-.80759-.54812-1.05192a1.59005,1.59005,0,0,0-3.06007.00108c-.12919.24271-.3146.59839-.547,1.05084-.43515.84488-1.06705,2.08708-1.87842,3.6909-1.36436,2.69736-3.25413,6.458-5.61959,11.177-3.75955,7.50342-7.54936,15.09873-8.06559,16.13388l-.05946.11946a1.498,1.498,0,0,0,2.68114,1.33679c4.21469-8.44992,11.91865-23.85839,15.01926-29.94231,2.76547,5.42769,9.60292,19.0826,15.01926,29.94177a1.498,1.498,0,1,0,2.68114-1.33679Z"/><path class="cls-1" d="M85.49088,106.4611c-.62728-.15216-8.02708-1.85983-11.40513-2.85409-.37677-3.62582-3.39949-43.889-4.8786-63.67719h43.33328a7.39223,7.39223,0,0,0-6.76023-7.36517L68.41835,29.35874l-.02073-.27832L70.39644,21.09a6.60831,6.60831,0,0,0-1.20585-5.664l-.05261-.06454a6.72708,6.72708,0,0,0-10.276,0l-.05261.06454a6.60831,6.60831,0,0,0-1.20585,5.664l1.99881,7.99039-.02073.27832L22.21979,32.56465a7.39223,7.39223,0,0,0-6.76023,7.36517H58.79284C57.31373,59.718,54.291,99.98119,53.91425,103.607c-3.378.99426-10.77785,2.70193-11.40513,2.85409a8.33935,8.33935,0,0,0-5.88622,5.30138l-1.158,3.26085H92.53511l-1.158-3.26085A8.33935,8.33935,0,0,0,85.49088,106.4611Z"/></svg>